<svg xmlns="http://www.w3.org/2000/svg" xmlns:xlink="http://www.w3.org/1999/xlink" width="170" height="177" version="1.1" viewBox="0 0 170 177"><title>Group 19</title><desc>Created with Sketch.</desc><defs><path id="path-1" d="M39.3652504,100.870208 L4.05909138,81.9015075 L4.05909138,81.9015075 C1.54701753,80.3983931 0,77.6238593 0,74.6216375 L0,30.4717779 C0,27.4695562 1.54701753,24.6950223 4.05909138,23.1919079 L40.9300591,1.12994456 C43.4479462,-0.376648186 46.5520538,-0.376648186 49.0699409,1.12994456 L85.9409086,23.1919079 C88.4529825,24.6950223 90,27.4695562 90,30.4717779 L90,74.6216375 C90,77.6238593 88.4529825,80.3983931 85.9409086,81.9015075 L50.9483881,100.857139 C49.7783215,101.49097 48.4686266,101.822917 47.1379132,101.822917 L43.1515005,101.822917 C41.830104,101.822917 40.5292836,101.4956 39.3652504,100.870208 Z"/><filter id="filter-2" width="233.3%" height="217.9%" x="-66.7%" y="-58.9%" filterUnits="objectBoundingBox"><feOffset dx="0" dy="0" in="SourceAlpha" result="shadowOffsetOuter1"/><feGaussianBlur in="shadowOffsetOuter1" result="shadowBlurOuter1" stdDeviation="20"/><feColorMatrix in="shadowBlurOuter1" type="matrix" values="0 0 0 0 0.450980392 0 0 0 0 0.525490196 0 0 0 0 0.62745098 0 0 0 0.24 0"/></filter></defs><g id="Page-1" fill="none" fill-rule="evenodd" stroke="none" stroke-width="1"><g id="Landingpage" transform="translate(-625.000000, -4227.000000)"><g id="Group-19" transform="translate(665.000000, 4264.583333)"><g id="Path-Copy-6"><use fill="#000" fill-opacity="1" filter="url(#filter-2)" xlink:href="#path-1"/><use fill="#69D6D4" fill-rule="evenodd" xlink:href="#path-1"/></g><g id="Group-14" stroke="#FFF" stroke-width="1.5" transform="translate(18.000000, 22.416667)"><path id="Path" stroke-linecap="round" d="M44.561807,32.8500952 C44.9591106,31.3953314 45.1712162,29.8641198 45.1712162,28.2833683 C45.1712162,18.7331401 37.4292266,10.9911504 27.8789984,10.9911504 C18.3287702,10.9911504 10.5867805,18.7331401 10.5867805,28.2833683 C10.5867805,36.0132258 15.6586498,42.5584847 22.6560711,44.7728276"/><path id="Path" stroke-linecap="round" d="M27.8789984,45.5755862 C29.6081234,45.5755862 31.2779722,45.3217942 32.8533264,44.8494284 C35.4869228,44.0597516 37.8564313,42.6592172 39.7973086,40.8123684"/><circle id="Oval-Copy" cx="42.289" cy="36.929" r="4.611" fill="#718AF4" fill-opacity=".196"/><path id="Path" stroke-linecap="round" d="M49.9967483,30.3288689 C53.9070012,32.4200209 56.0877917,34.3600505 55.7173314,35.7426272 C55.316554,37.2383489 52.0036918,37.8061346 46.9370875,37.5206892"/><path id="Path" stroke-linecap="round" d="M37.4770284,36.3414044 C34.0334852,35.7283806 30.2823037,34.8947391 26.3871466,33.8510349 C11.0124598,29.7314 -0.783261661,23.8990468 0.0406653215,20.8241094 C0.413408487,19.433013 3.30508604,18.8445753 7.78382587,18.998697"/><line id="Line-6" x1="38.644" x2="38.644" y1=".239" y2="6.465" stroke-linecap="round"/><line id="Line-6-Copy" x1="38.644" x2="38.644" y1=".239" y2="6.465" stroke-linecap="round" transform="translate(38.644331, 3.345133) rotate(-270.000000) translate(-38.644331, -3.345133)"/><line id="Line-6" x1="10.928" x2="10.928" y1="7.789" y2="11.525" stroke-linecap="round"/><line id="Line-6-Copy" x1="10.924" x2="10.924" y1="7.785" y2="11.521" stroke-linecap="round" transform="translate(10.923520, 9.653097) rotate(-270.000000) translate(-10.923520, -9.653097)"/><line id="Line-6" x1="39.361" x2="39.361" y1="47.915" y2="51.235" stroke-linecap="round"/><line id="Line-6-Copy" x1="39.358" x2="39.358" y1="47.911" y2="51.232" stroke-linecap="round" transform="translate(39.357593, 49.571681) rotate(-270.000000) translate(-39.357593, -49.571681)"/><line id="Line-6" x1="11.883" x2="11.883" y1="47.995" y2="53.39" stroke-linecap="round"/><line id="Line-6-Copy" x1="11.877" x2="11.877" y1="47.989" y2="53.385" stroke-linecap="round" transform="translate(11.877496, 50.686726) rotate(-270.000000) translate(-11.877496, -50.686726)"/></g></g></g></g></svg>