<svg xmlns="http://www.w3.org/2000/svg" xmlns:xlink="http://www.w3.org/1999/xlink" width="170" height="175" version="1.1" viewBox="0 0 170 175"><title>Group 2</title><desc>Created with Sketch.</desc><defs><path id="path-1" d="M39.8280301,99.3085304 L4.05909138,80.4352401 L4.05909138,80.4352401 C1.54701753,78.9590357 0,76.2341738 0,73.2857003 L0,29.9262474 C0,26.9777738 1.54701753,24.2529119 4.05909138,22.7767075 L40.9300591,1.10971537 C43.4479462,-0.369905124 46.5520538,-0.369905124 49.0699409,1.10971537 L85.9409086,22.7767075 C88.4529825,24.2529119 90,26.9777738 90,29.9262474 L90,73.2857003 C90,76.2341738 88.4529825,78.9590357 85.9409086,80.4352401 L49.1655405,100 L42.6202345,100 C41.6471181,100 40.6886867,99.7626513 39.8280301,99.3085304 Z"/><filter id="filter-2" width="233.3%" height="220%" x="-66.7%" y="-60%" filterUnits="objectBoundingBox"><feOffset dx="0" dy="0" in="SourceAlpha" result="shadowOffsetOuter1"/><feGaussianBlur in="shadowOffsetOuter1" result="shadowBlurOuter1" stdDeviation="20"/><feColorMatrix in="shadowBlurOuter1" type="matrix" values="0 0 0 0 0.450980392 0 0 0 0 0.525490196 0 0 0 0 0.62745098 0 0 0 0.24 0"/></filter><circle id="path-3" cx="52" cy="44" r="4"/><circle id="path-4" cx="36" cy="18" r="4"/><circle id="path-5" cx="20" cy="31" r="4"/><circle id="path-6" cx="4" cy="10" r="4"/></defs><g id="Page-1" fill="none" fill-rule="evenodd" stroke="none" stroke-width="1"><g id="Landingpage" transform="translate(-634.000000, -3786.000000)"><g id="Group-2" transform="translate(674.000000, 3823.000000)"><g id="Path-Copy-7"><use fill="#000" fill-opacity="1" filter="url(#filter-2)" xlink:href="#path-1"/><use fill="#69D6D4" fill-rule="evenodd" xlink:href="#path-1"/></g><g id="Group-31" transform="translate(17.000000, 26.000000)"><g id="Group-30"><line id="Path-6" x1="4.002" x2="4.002" y1="0" y2="54" stroke="#FFF" stroke-linecap="round" stroke-linejoin="round" stroke-width="1.5"/><line id="Path-6-Copy" x1="20" x2="20" y1="0" y2="54" stroke="#FFF" stroke-linecap="round" stroke-linejoin="round" stroke-width="1.5"/><line id="Path-6-Copy-2" x1="36" x2="36" y1="0" y2="54" stroke="#FFF" stroke-linecap="round" stroke-linejoin="round" stroke-width="1.5"/><line id="Path-6-Copy-3" x1="52" x2="52" y1="0" y2="54" stroke="#FFF" stroke-linecap="round" stroke-linejoin="round" stroke-width="1.5"/><g id="Oval"><use fill="#69D6D4" fill-rule="evenodd" xlink:href="#path-3"/><circle cx="52" cy="44" r="5.25" stroke="#69D6D4" stroke-width="2.5"/><use stroke="#FFF" stroke-width="1.5" xlink:href="#path-3"/></g><g id="Oval-Copy-23"><use fill="#69D6D4" fill-rule="evenodd" xlink:href="#path-4"/><circle cx="36" cy="18" r="5.25" stroke="#69D6D4" stroke-width="2.5"/><use stroke="#FFF" stroke-width="1.5" xlink:href="#path-4"/></g><g id="Oval-Copy-24"><use fill="#69D6D4" fill-rule="evenodd" xlink:href="#path-5"/><circle cx="20" cy="31" r="5.25" stroke="#69D6D4" stroke-width="2.5"/><use stroke="#FFF" stroke-width="1.5" xlink:href="#path-5"/></g><g id="Oval-Copy-25"><use fill="#69D6D4" fill-rule="evenodd" xlink:href="#path-6"/><circle cx="4" cy="10" r="5.25" stroke="#69D6D4" stroke-width="2.5"/><use stroke="#FFF" stroke-width="1.5" xlink:href="#path-6"/></g></g></g></g></g></g></svg>