<svg xmlns="http://www.w3.org/2000/svg" xmlns:xlink="http://www.w3.org/1999/xlink" width="170" height="178" version="1.1" viewBox="0 0 170 178"><title>Group 9</title><desc>Created with Sketch.</desc><defs><path id="path-1" d="M39.3478875,102.377584 L4.05909138,83.1331091 L4.05909138,83.1331091 C1.54701753,81.6073915 0,78.7911353 0,75.7437674 L0,30.9300002 C0,27.8826322 1.54701753,25.066376 4.05909138,23.5406584 L40.9300591,1.14693621 C43.4479462,-0.382312069 46.5520538,-0.382312069 49.0699409,1.14693621 L85.9409086,23.5406584 C88.4529825,25.066376 90,27.8826322 90,30.9300002 L90,75.7437674 C90,78.7911353 88.4529825,81.6073915 85.9409086,83.1331091 L50.9657226,102.364256 C49.7847598,103.01361 48.4588878,103.354088 47.1111736,103.354088 L43.1780973,103.354088 C41.8397796,103.354088 40.5228461,103.018339 39.3478875,102.377584 Z"/><filter id="filter-2" width="233.3%" height="216.1%" x="-66.7%" y="-58.1%" filterUnits="objectBoundingBox"><feOffset dx="0" dy="0" in="SourceAlpha" result="shadowOffsetOuter1"/><feGaussianBlur in="shadowOffsetOuter1" result="shadowBlurOuter1" stdDeviation="20"/><feColorMatrix in="shadowBlurOuter1" type="matrix" values="0 0 0 0 0.450980392 0 0 0 0 0.525490196 0 0 0 0 0.62745098 0 0 0 0.24 0"/></filter></defs><g id="Page-1" fill="none" fill-rule="evenodd" stroke="none" stroke-width="1"><g id="Landingpage" transform="translate(-186.000000, -3770.000000)"><g id="Group-9" transform="translate(226.000000, 3807.000000)"><g id="Path-Copy-6"><use fill="#000" fill-opacity="1" filter="url(#filter-2)" xlink:href="#path-1"/><use fill="#69D6D4" fill-rule="evenodd" xlink:href="#path-1"/></g><g id="Group-16" stroke="#FFF" transform="translate(15.000000, 22.926692)"><path id="Path" fill="#69D6D4" stroke-width="1.266" d="M20.3611765,15.3741176 L54.9211765,15.3741176 C55.4825577,15.3741176 55.9376471,15.829207 55.9376471,16.3905882 L55.9376471,37.2282353 C55.9376471,37.7896165 55.4825577,38.2447059 54.9211765,38.2447059 L20.3611765,38.2447059 L20.3611765,38.2447059"/><line id="Line-2" x1="20.107" x2="20.107" y1="50.272" y2="13.849" stroke-linecap="round" stroke-width="1.5"/><path id="Path" fill="#69D6D4" stroke-width="1.5" d="M37.197709,20.756326 C35.8211471,22.6306098 35.0112051,24.9279748 35.0112051,27.4098836 C35.0112051,27.7228455 35.0241004,28.0328691 35.0493901,28.339477 L33.2392714,30.7145993 L34.1496919,33.1383693 L36.073661,32.1746388 L36.7523717,32.6054967 L40.0112105,32.6054967 C40.1122065,32.412556 40.20775,32.2164449 40.297645,32.0173576 L42.7729465,33.0009208 L42.8800619,30.2621143 L41.251106,28.3189708 C41.2752915,28.019048 41.2876184,27.7158702 41.2876184,27.4098836 C41.2876184,24.88155 40.4566394,22.5446008 38.2987549,20.6382145 C38.0965849,20.4596071 37.8921004,20.2930239 37.6854463,20.1380359 C37.5157107,20.3385589 37.3530595,20.5448056 37.197709,20.756326 Z"/><path id="Path" stroke-linecap="round" stroke-width="1.5" d="M3.81561041,53.6636244 C4.80311572,52.7276646 5.83669408,51.839833 6.91258967,51.0038855 L5.80006961,49.2907549 C5.49431949,48.819941 5.62813012,48.1904115 6.09894401,47.8846613 L10.3613638,45.1166135 C10.8321777,44.8108634 11.4617072,44.9446741 11.7674574,45.415488 L12.8846899,47.1358753 C16.7692663,45.0701883 21.0217425,43.6049077 25.5183407,42.863811"/><path id="Path" stroke-linecap="round" stroke-width="1.5" d="M32.3047059,42.3105882 C38.2685363,42.3105882 43.9379876,43.5709753 49.0612222,45.8399118 L50.1045079,44.0328879 C50.3851985,43.5467175 51.0068622,43.3801432 51.4930326,43.6608338 L58.0952027,47.4725986 C58.5813731,47.7532892 58.7479474,48.3749528 58.4672568,48.8611232 L57.373645,50.7553143 C58.5282198,51.6343811 59.6352389,52.5726999 60.6901681,53.5657364"/><line id="Line-6" x1="36.371" x2="36.371" y1=".381" y2="7.002" stroke-linecap="round" stroke-width="1.5"/><line id="Line-6-Copy" x1="36.371" x2="36.371" y1=".381" y2="7.002" stroke-linecap="round" stroke-width="1.5" transform="translate(36.370588, 3.684706) rotate(-270.000000) translate(-36.370588, -3.684706)"/><line id="Line-6" x1="9.942" x2="9.942" y1="10.952" y2="14.925" stroke-linecap="round" stroke-width="1.5"/><line id="Line-6-Copy" x1="9.938" x2="9.938" y1="10.948" y2="14.921" stroke-linecap="round" stroke-width="1.5" transform="translate(9.938102, 12.934588) rotate(-270.000000) translate(-9.938102, -12.934588)"/><line id="Line-6" x1="3.335" x2="3.335" y1="30.333" y2="36.072" stroke-linecap="round" stroke-width="1.5"/><line id="Line-6-Copy" x1="3.329" x2="3.329" y1="30.327" y2="36.065" stroke-linecap="round" stroke-width="1.5" transform="translate(3.329154, 33.196235) rotate(-270.000000) translate(-3.329154, -33.196235)"/></g></g></g></g></svg>